<?xml version="1.0" encoding="utf-8"?><svg viewBox="0 0 45 44" xmlns="http://www.w3.org/2000/svg" xmlns:xlink="http://www.w3.org/1999/xlink"><style>:root>svg{display:none}:root>svg:target{display:block}</style><svg viewBox="0 0 44 34" id="Asian" xmlns="http://www.w3.org/2000/svg"><path d="M15.132 8.567h2.124c.552 0 1 .448 1 1v1.464a.644.644 0 1 0 1.29 0V9.567a2.292 2.292 0 0 0-2.29-2.29h-2.124a.984.984 0 0 1 0-1.966h4.711a2.275 2.275 0 0 0 2.272-2.272A2.275 2.275 0 0 0 19.843.767h-3.77a.644.644 0 1 0 0 1.29h3.77a.984.984 0 0 1 0 1.965h-4.711a2.275 2.275 0 0 0-2.273 2.273 2.275 2.275 0 0 0 2.273 2.272ZM7.389 12.892h2.108c.544 0 .987.443.987.988v1.454a.644.644 0 1 0 1.29 0V13.88a2.279 2.279 0 0 0-2.277-2.277H7.39a.972.972 0 0 1 0-1.94h2.465a.645.645 0 0 0 0-1.29H7.389a2.262 2.262 0 0 0-2.26 2.26 2.262 2.262 0 0 0 2.26 2.26ZM25.652 21.813a.645.645 0 1 0 0-1.29.645.645 0 0 0 0 1.29ZM28.832 23.273a.645.645 0 1 0 0-1.289.645.645 0 0 0 0 1.29ZM30.723 25.508a.645.645 0 1 0 0-1.29.645.645 0 0 0 0 1.29ZM28.059 20.266a.644.644 0 1 0 0-1.29.644.644 0 0 0 0 1.29ZM25.91 25.938a.645.645 0 1 0 0-1.29.645.645 0 0 0 0 1.29Z"/><path d="M42.911 17.81h-1.828l.904-1.867A2.507 2.507 0 0 0 44 13.49a2.507 2.507 0 0 0-2.102-2.47c-1.315-2.37-3.885-4.149-7.001-4.86v-.048a.644.644 0 0 0-1.264-.176c-.393-.05-.792-.083-1.197-.1a.644.644 0 0 0-1.163 0c-.405.017-.804.05-1.197.1a.644.644 0 0 0-1.264.176v.049c-3.116.71-5.686 2.49-7.001 4.859a2.506 2.506 0 0 0-2.093 2.685c-2.975.277-5.649 1.52-7.655 3.386h-4.05a.908.908 0 0 0-.69.318H5.43a2.118 2.118 0 0 0-1.957-1.337 2.106 2.106 0 0 0-2.082 2.397 2.107 2.107 0 0 0-1.066 3.104 2.106 2.106 0 0 0 1.778 3.229c.878 0 1.648-.554 1.958-1.337h1.704a.91.91 0 0 0 .586.623l2.02.686a10.897 10.897 0 0 0-.002 1.223c-.316.076-.61.207-.873.383a2.701 2.701 0 0 0-1.51-.46 2.721 2.721 0 0 0-2.717 2.719l.002.068h-.754c-.426 0-.803.24-.985.624a1.08 1.08 0 0 0 .144 1.156l1.934 2.35c.207.252.514.397.84.397h27.26a.644.644 0 1 0 0-1.29H4.545l-1.604-1.948h39.544l-1.603 1.949h-6.164a.645.645 0 1 0 0 1.289h6.258c.327 0 .633-.145.84-.397l1.934-2.35a1.08 1.08 0 0 0 .144-1.156 1.079 1.079 0 0 0-.984-.624h-.638a5.411 5.411 0 0 0 .64-3.671.645.645 0 0 0-.52-.52 5.409 5.409 0 0 0-5.008 1.731c-.37-.2-.79-.316-1.237-.325v-1.226h.688c1.09 0 1.977-.887 1.977-1.977v-.865h4.1c.6 0 1.088-.488 1.088-1.088v-1.866c0-.6-.488-1.088-1.089-1.088ZM6.291 28.707H4.56l-.002-.068a1.43 1.43 0 0 1 2.053-1.284 2.7 2.7 0 0 0-.323 1.284c0 .023.002.045.003.068Zm32.225-1.784a4.117 4.117 0 0 1 3.184-1.195 4.118 4.118 0 0 1-1.005 2.98h-1.063l.881-.881a.645.645 0 1 0-.911-.912l-.914.913a2.71 2.71 0 0 0-.348-.717c.057-.064.115-.127.176-.188ZM25.503 8.942a10.716 10.716 0 0 1 3.309-1.452v.663a.644.644 0 1 0 1.29 0v-.918c.364-.052.735-.087 1.108-.106v1.024a.645.645 0 1 0 1.289 0V7.13c.373.02.743.054 1.109.106v.918a.645.645 0 1 0 1.289 0V7.49c1.206.308 2.333.799 3.309 1.452.95.637 1.724 1.406 2.288 2.256a2.526 2.526 0 0 0-.604.375 2.506 2.506 0 0 0-1.607-.587c-.595 0-1.163.214-1.607.587a2.506 2.506 0 0 0-1.607-.587c-.595 0-1.163.214-1.607.587a2.506 2.506 0 0 0-1.608-.587c-.594 0-1.162.214-1.607.587a2.506 2.506 0 0 0-1.607-.587c-.594 0-1.162.214-1.607.587a2.506 2.506 0 0 0-1.607-.587c-.594 0-1.162.214-1.607.587a2.524 2.524 0 0 0-.605-.375c.565-.85 1.339-1.62 2.29-2.256Zm-3.291 3.333c.43 0 .832.233 1.05.607a.645.645 0 0 0 1.114 0c.217-.374.62-.607 1.05-.607.43 0 .832.233 1.05.607a.645.645 0 0 0 1.115 0c.217-.374.619-.607 1.05-.607.43 0 .832.233 1.049.607a.645.645 0 0 0 1.115 0c.217-.374.62-.607 1.05-.607.43 0 .832.233 1.049.607a.645.645 0 0 0 1.115 0c.217-.374.62-.607 1.05-.607.43 0 .832.233 1.05.607a.645.645 0 0 0 1.114 0c.217-.374.62-.607 1.05-.607.43 0 .832.233 1.05.607a.645.645 0 0 0 1.114 0c.218-.374.62-.607 1.05-.607a1.215 1.215 0 0 1 0 2.427c-.43 0-.832-.232-1.05-.607a.645.645 0 0 0-1.114 0c-.218.375-.62.607-1.05.607-.43 0-.833-.232-1.05-.607a.645.645 0 0 0-1.115 0c-.217.375-.62.607-1.05.607-.43 0-.832-.232-1.049-.607a.645.645 0 0 0-1.115 0c-.217.375-.62.607-1.05.607-.43 0-.832-.232-1.05-.607a.645.645 0 0 0-1.114 0c-.218.375-.62.607-1.05.607-.43 0-.832-.232-1.05-.607a.645.645 0 0 0-1.114 0 1.22 1.22 0 0 1-.54.493 13.366 13.366 0 0 0-4.927-.942 1.215 1.215 0 0 1 1.202-1.37ZM8.392 18.38h2.472a11.78 11.78 0 0 0-.712.983h-1.76v-.983Zm-2.66 3.796H3.558a.644.644 0 0 0-.643.59.818.818 0 0 1-.81.747.815.815 0 0 1-.519-1.443.645.645 0 0 0 0-.993.815.815 0 0 1 .519-1.443c.42 0 .776.327.81.746a.644.644 0 0 0 .643.59h2.176v1.206Zm.221-2.494H4.061a2.129 2.129 0 0 0-1.36-1.248.813.813 0 1 1 1.583-.327.645.645 0 0 0 .642.591h2.177v.665h-.46a.909.909 0 0 0-.69.319Zm4.48 9.025H7.58a1.43 1.43 0 0 1 1.427-1.497 1.43 1.43 0 0 1 1.428 1.429l-.002.068Zm19.879 0h-2.244l-.002-.068a1.43 1.43 0 0 1 2.439-1.01 2.704 2.704 0 0 0-.196 1.01c0 .023.002.045.003.068Zm-.817-2.786a2.721 2.721 0 0 0-2.719 2.718c0 .023.002.045.003.068H11.722l.002-.068c0-1.273-.88-2.344-2.063-2.638a9.734 9.734 0 0 1-.016-.795l6.592 2.239a4.113 4.113 0 0 0 3.753-.556 4.106 4.106 0 0 0 1.732-3.375c0-.484-.083-.96-.247-1.413a.645.645 0 0 0-1.212.44c.113.311.17.639.17.973a2.83 2.83 0 0 1-1.195 2.327 2.83 2.83 0 0 1-2.587.383l-9.629-3.27v-2.302h10.55c.323 0 .641.055.946.162a.644.644 0 1 0 .427-1.217 4.142 4.142 0 0 0-1.373-.234h-5.845c2.056-2.676 5.438-4.428 9.256-4.428 6.253 0 11.34 4.696 11.34 10.468 0 .206-.006.412-.02.616-.389.108-.743.3-1.042.556a2.705 2.705 0 0 0-1.766-.654Zm4.959 2.786h-2.853a1.43 1.43 0 0 1 1.427-1.497c.787 0 1.428.64 1.428 1.429 0 .023 0 .045-.002.068Zm.404-2.486a2.72 2.72 0 0 0-.297.175 2.706 2.706 0 0 0-.964-.413 10.977 10.977 0 0 0-.01-1.287h1.271v1.525Zm2.665 2.418c0 .023-.002.045-.003.068h-1.777l.002-.068a2.7 2.7 0 0 0-.313-1.266 1.43 1.43 0 0 1 2.09 1.265Zm0-5.92c0 .38-.309.688-.688.688h-3.407c-.098-.53-.232-1.05-.404-1.553h4.499v.865Zm5.188-2.154H32.493a11.526 11.526 0 0 0-.853-1.464h2.735a.644.644 0 1 0 0-1.29h-3.756a12.413 12.413 0 0 0-2.077-1.82 2.46 2.46 0 0 0 1.705-.586 2.507 2.507 0 0 0 1.607.588c.595 0 1.163-.215 1.608-.588a2.506 2.506 0 0 0 1.607.588c.594 0 1.162-.215 1.607-.588a2.506 2.506 0 0 0 1.607.588c.594 0 1.162-.215 1.607-.588.215.18.459.323.72.423l-.96 1.984h-2.267a.644.644 0 1 0 0 1.289h5.328v1.464Z"/></svg><svg viewBox="0 0 21 20" id="Cart" xmlns="http://www.w3.org/2000/svg"><path d="m1 1.176 2.08.356.963 11.34c.077.926.86 1.636 1.8 1.633h10.909a1.794 1.794 0 0 0 1.785-1.528l.949-6.482a1.328 1.328 0 0 0-1.135-1.501c-.064-.009-14.937-.014-14.937-.014M12.375 8.633h2.773"/><path fill-rule="evenodd" clip-rule="evenodd" d="M5.404 17.932a.54.54 0 0 1 .544.538.541.541 0 0 1-.544.539.541.541 0 0 1-.544-.54.54.54 0 0 1 .544-.537ZM16.685 17.932c.3 0 .545.24.545.538a.542.542 0 0 1-.545.539.541.541 0 0 1-.544-.54.54.54 0 0 1 .544-.537Z"/></svg><svg viewBox="0 0 44 44" id="Sandwich" xmlns="http://www.w3.org/2000/svg"><path d="M41.8 6.6h-1.467V5.133a2.2 2.2 0 0 0-2.2-2.2h-1.747L35.326.811A1.457 1.457 0 0 0 34.012 0H33c-.81 0-1.467.657-1.467 1.467v1.466h-8.066a2.2 2.2 0 0 0-2.2 2.2V6.6H19.8a2.2 2.2 0 0 0-2.2 2.2v1.467c0 .81.657 1.466 1.467 1.466h.077l.858 7.577-3.533-.83a11.127 11.127 0 0 0-.576-.813L14.646 12.3a.733.733 0 0 0-.713-.568H9.72C7.73 9.981 5.382 9.19 3.61 9.711L2.532 8.537a1.448 1.448 0 0 0-1.605-.366c-.56.216-.93.755-.928 1.355v32.289A2.188 2.188 0 0 0 2.185 44h35.948c.373 0 .686-.28.728-.65l3.593-31.617h.08c.81 0 1.466-.657 1.466-1.466V8.8a2.2 2.2 0 0 0-2.2-2.2ZM33 1.467h1.013l.734 1.466H33V1.467ZM22.733 5.133c0-.405.329-.733.734-.733h14.666c.405 0 .734.328.734.733V6.6H22.733V5.133Zm-2.053 15.84.046.009.593.14.397 4.162a6.758 6.758 0 0 0-3.94-1.242 6.28 6.28 0 0 0-.411-3.848l3.315.78Zm1.433 6.487.01.008c.265.245.517.505.755.778a8.686 8.686 0 0 1 1.876 3.388c.124.437.188.89.19 1.344l-6.85-7.47c1.524.17 2.943.86 4.019 1.952Zm-7.728-9.32v-.002c1.583 1.819 2.32 4.003 1.97 5.472l-7.463-8.137c1.505-.336 3.795.721 5.493 2.667Zm-1.038-4.94.586 2.497a9.342 9.342 0 0 0-1.913-1.154 11.558 11.558 0 0 0-.928-1.343h2.255Zm-3.687.546h.003c.06.07.11.146.17.22a3.99 3.99 0 0 0-2.012.338l-3.015-3.288c1.474.021 3.398 1.058 4.854 2.73Zm21.077 28.356a.717.717 0 0 1-.656.431H2.185a.719.719 0 0 1-.718-.718L1.453 9.533l14.72 16.048v.004l8.644 9.424.01.011 4.74 5.172c.018.022.035.044.055.065l.983 1.072a.716.716 0 0 1 .132.773Zm-4.54-7.757a4.61 4.61 0 0 0 .203-1.352c.385.325.744.68 1.074 1.061.41.468.773.975 1.086 1.513.428.72.73 1.507.895 2.329l-3.257-3.551Zm11.281 8.188h-5.342c.275-.76.1-1.61-.45-2.2l-.74-.806a6.691 6.691 0 0 0-.571-3.594h7.854l-.75 6.6Zm.917-8.066h-8.8a11.218 11.218 0 0 0-1.009-1.375 10.69 10.69 0 0 0-2.512-2.136 10.145 10.145 0 0 0-2.09-3.676c-.22-.25-.44-.482-.671-.706l-.58-6.11a.733.733 0 0 0-.56-.644l-.65-.154-.154-1.333h18.86l-1.834 16.134Zm2-17.6H21.203l-.58-5.134h20.357l-.583 5.134Zm2.138-6.6H19.067V8.8c0-.405.328-.733.733-.733h22c.405 0 .733.328.733.733v1.467Z"/><path d="M31.1 32.267c.042 0 .083-.006.124-.008.011 0 .023.008.034.008a.704.704 0 0 0 .109-.016 3.967 3.967 0 0 0 2.899-1.568 5.101 5.101 0 0 0 .714-4.474c-.102-.38-.195-.753-.285-1.113-.572-2.293-1.119-4.456-3.435-4.553-.024 0-.046-.004-.07-.004-.023 0-.057-.006-.09-.006-2.591 0-4.7 2.632-4.7 5.867s2.109 5.867 4.7 5.867Zm.568-10.157c.758.298 1.092 1.291 1.604 3.341.092.367.187.751.293 1.14a3.656 3.656 0 0 1-.464 3.2 2.592 2.592 0 0 1-.876.734 10.656 10.656 0 0 0-.733-3.68c-.073-.23-.147-.45-.211-.66-.427-1.389.073-3.188.387-4.075Zm-1.576.11a8.048 8.048 0 0 0-.212 4.393c.068.22.143.448.22.685.367 1.12.807 2.472.627 3.468-1.607-.25-2.86-2.112-2.86-4.366 0-1.947.935-3.6 2.225-4.18ZM3.881 38.563l-.518.518A.733.733 0 1 0 4.4 40.118l.518-.518a.733.733 0 0 0-1.037-1.037ZM10.893 33.626a.734.734 0 0 0-1.038-1.037l-.518.518a.733.733 0 1 0 1.037 1.038l.519-.519ZM4.4 31.748l-.519.519a.733.733 0 1 0 1.037 1.037l.519-.519A.733.733 0 0 0 4.4 31.748ZM4.4 26.615l-.519.518a.733.733 0 1 0 1.037 1.037l.519-.518A.733.733 0 0 0 4.4 26.615ZM11 38.563l-.518.518a.734.734 0 1 0 1.036 1.037l.519-.518A.733.733 0 0 0 11 38.563ZM16.348 38.563l-.518.519a.734.734 0 1 0 1.037 1.036l.518-.518a.733.733 0 0 0-1.037-1.037Z"/></svg><svg viewBox="0 0 21 22" id="Search" xmlns="http://www.w3.org/2000/svg"><ellipse cx="9.767" cy="10.63" rx="8.989" ry="8.884"/><path d="m16.018 17.27 3.524 3.475"/></svg><svg viewBox="0 0 24 24" id="arrow" xmlns="http://www.w3.org/2000/svg"><path d="M13.121 6.293a1 1 0 0 0 0 1.414L16.413 11 6 11.007a1 1 0 0 0 0 2L16.414 13l-3.293 3.293a1 1 0 1 0 1.414 1.414l3.586-3.585a3 3 0 0 0 0-4.243l-3.586-3.586a1 1 0 0 0-1.414 0Z"/></svg><svg viewBox="0 0 44 44" id="burger" xmlns="http://www.w3.org/2000/svg"><g clip-path="url(#ca)"><path d="M44 20.336c0-1.69-1.09-3.128-2.602-3.653-.232-5.241-2.189-9.263-5.825-11.966C32.254 2.251 27.688 1 22 1 16.312 1 11.746 2.25 8.427 4.717 4.791 7.42 2.834 11.442 2.602 16.683A3.873 3.873 0 0 0 0 20.336c0 .99.374 1.893.988 2.578A3.851 3.851 0 0 0 0 25.492c0 1.7 1.103 3.146 2.63 3.663.553 5.89 5.56 10.517 11.636 10.517h15.468c6.076 0 11.084-4.627 11.636-10.517A3.873 3.873 0 0 0 44 25.492c0-.99-.374-1.893-.988-2.578A3.852 3.852 0 0 0 44 20.336ZM22 3.578c7.393 0 16.151 2.28 16.803 12.89H5.197C5.849 5.859 14.607 3.579 22 3.579ZM3.867 19.047h36.266c.71 0 1.289.578 1.289 1.289 0 .71-.578 1.289-1.29 1.289H3.868a1.29 1.29 0 0 1-1.289-1.29c0-.71.578-1.288 1.29-1.288Zm25.867 18.047H14.266c-4.581 0-8.383-3.367-9.016-7.735h1.195c.862 0 1.134.293 1.677.878.667.718 1.58 1.7 3.566 1.7 2 0 2.889-.993 3.538-1.718.513-.572.77-.86 1.618-.86.848 0 1.105.288 1.617.86.65.725 1.54 1.718 3.539 1.718 2 0 2.89-.993 3.538-1.718.513-.572.77-.86 1.618-.86.848 0 1.105.288 1.618.86.65.725 1.539 1.718 3.538 1.718 2 0 2.89-.993 3.539-1.718.513-.572.77-.86 1.618-.86h1.281c-.633 4.367-4.435 7.735-9.016 7.735ZM40.133 26.78h-2.664c-2 0-2.89.993-3.539 1.719-.512.572-.77.86-1.617.86-.848 0-1.106-.288-1.618-.86-.65-.726-1.539-1.719-3.539-1.719s-2.889.993-3.538 1.719c-.513.572-.77.86-1.618.86-.848 0-1.105-.288-1.618-.86-.65-.726-1.538-1.719-3.538-1.719-2 0-2.89.993-3.539 1.719-.512.572-.77.86-1.617.86-.862 0-1.135-.294-1.677-.878-.667-.718-1.58-1.7-3.566-1.7H3.867a1.29 1.29 0 0 1-1.289-1.29c0-.71.578-1.289 1.29-1.289h36.265a1.29 1.29 0 0 1 0 2.578Z"/><path d="M14.266 13.89a1.289 1.289 0 1 0 0-2.577 1.289 1.289 0 0 0 0 2.578ZM29.734 13.89a1.289 1.289 0 1 0 0-2.577 1.289 1.289 0 0 0 0 2.578ZM24.578 11.313a1.289 1.289 0 1 0 0-2.579 1.289 1.289 0 0 0 0 2.579ZM19.422 8.734a1.289 1.289 0 1 0 0-2.578 1.289 1.289 0 0 0 0 2.578Z"/></g><defs><clipPath id="ca"><path d="M0 0h44v44H0z"/></clipPath></defs></svg><svg viewBox="0 0 24 20" id="coma" xmlns="http://www.w3.org/2000/svg"><path d="M5.217 9.565c1.276.116 2.32.609 3.13 1.479.812.869 1.218 1.97 1.218 3.304 0 1.45-.435 2.637-1.304 3.565-.87.87-1.971 1.304-3.304 1.304-1.508 0-2.725-.55-3.653-1.652C.434 16.464 0 14.754 0 12.435 0 7.97 1.478 4.115 4.435.87c.58-.58 1.246-.87 2-.87.637 0 1.188.232 1.652.696.464.405.696.898.696 1.478 0 .638-.232 1.188-.696 1.652-1.507 1.565-2.464 3.478-2.87 5.74Zm14.435 0c1.275.116 2.319.609 3.13 1.479.812.869 1.218 1.97 1.218 3.304 0 1.45-.435 2.637-1.304 3.565-.87.87-1.971 1.304-3.305 1.304-1.507 0-2.724-.55-3.652-1.652-.87-1.101-1.304-2.811-1.304-5.13 0-4.464 1.478-8.32 4.435-11.565.58-.58 1.246-.87 2-.87.637 0 1.188.232 1.652.696.463.405.695.898.695 1.478 0 .638-.232 1.188-.695 1.652-1.507 1.565-2.464 3.478-2.87 5.74Z"/></svg><svg viewBox="0 0 44 44" id="dish" xmlns="http://www.w3.org/2000/svg"><g clip-path="url(#fa)"><path d="m31.158 14.657-.47-1.531c-.599-1.74-2.51-2.671-4.27-2.08a3.347 3.347 0 0 0-2.105 2.08l-.47 1.531a8.506 8.506 0 0 0-.243 3.987 3.754 3.754 0 0 0 1.953 2.613l-.527 11.65c-.07.65.143 1.3.587 1.785a2.583 2.583 0 0 0 3.78 0 2.248 2.248 0 0 0 .587-1.736l-.53-11.7a3.753 3.753 0 0 0 1.95-2.612 8.508 8.508 0 0 0-.242-3.987Zm-1.202 3.735a2.307 2.307 0 0 1-1.522 1.731.725.725 0 0 0-.474.711l.557 12.236a.832.832 0 0 1-.22.657 1.143 1.143 0 0 1-1.594 0 .864.864 0 0 1-.216-.705l.553-12.188a.725.725 0 0 0-.474-.71 2.307 2.307 0 0 1-1.522-1.732 7.07 7.07 0 0 1 .202-3.31l.47-1.532a1.908 1.908 0 0 1 3.568 0l.47 1.532a7.077 7.077 0 0 1 .202 3.31ZM19.8 10.872a.73.73 0 0 0-.733.725v6.223l-1.986 1.963a.72.72 0 0 0-.214.548l.641 12.685a.98.98 0 0 1-.277.738c-.401.4-1.055.403-1.46.007l-.007-.007a.98.98 0 0 1-.277-.738l.646-12.685a.72.72 0 0 0-.214-.548l-1.986-1.963v-6.223a.73.73 0 0 0-.733-.725.73.73 0 0 0-.733.725v6.524a.72.72 0 0 0 .214.512l1.97 1.948-.625 12.364c-.067 1.351.987 2.5 2.354 2.565 1.366.066 2.528-.976 2.594-2.326.004-.08.004-.16 0-.239l-.625-12.364 1.97-1.948a.72.72 0 0 0 .214-.512v-6.524a.73.73 0 0 0-.733-.725Z"/><path d="M15.4 10.872a.73.73 0 0 0-.733.725v5.799c0 .4.328.724.733.724a.73.73 0 0 0 .733-.724v-5.799a.73.73 0 0 0-.733-.725ZM17.6 10.872a.73.73 0 0 0-.733.725v5.799c0 .4.328.724.733.724a.73.73 0 0 0 .733-.724v-5.799a.73.73 0 0 0-.733-.725Z"/><path d="M22 0C9.85 0 0 9.735 0 21.745c0 12.009 9.85 21.744 22 21.744s22-9.735 22-21.744C43.986 9.74 34.145.014 22 0Zm0 42.04c-11.34 0-20.533-9.087-20.533-20.295C1.467 10.536 10.66 1.45 22 1.45c11.34 0 20.533 9.086 20.533 20.295C42.52 32.948 33.335 42.027 22 42.04Z"/><path d="M24.38 35.351a.731.731 0 0 0-.83-.648h.004a13.618 13.618 0 0 1-3.108 0 .732.732 0 0 0-.814.635.727.727 0 0 0 .643.805c1.145.133 2.302.133 3.447 0a.727.727 0 0 0 .658-.792ZM33.22 12.405a.74.74 0 0 0-1.036-.087.72.72 0 0 0-.088 1.02 12.936 12.936 0 0 1-.778 17.648.72.72 0 0 0-.002 1.025.74.74 0 0 0 1.037.002 14.374 14.374 0 0 0 .867-19.608ZM17.086 9.582l-.002-.001h-.002.004Z"/><path d="M25.46 7.653a14.96 14.96 0 0 0-8.633.524.722.722 0 0 0 .258 1.404.742.742 0 0 0 .256-.047 13.47 13.47 0 0 1 7.773-.472.724.724 0 1 0 .345-1.41ZM12.65 30.95a12.887 12.887 0 0 1-3.85-9.205 12.85 12.85 0 0 1 2.523-7.675.72.72 0 0 0-.145-1.015.739.739 0 0 0-1.04.161 14.371 14.371 0 0 0 1.472 18.76.74.74 0 0 0 1.039 0 .72.72 0 0 0 0-1.026Z"/></g><defs><clipPath id="fa"><path d="M0 0h44v43.489H0z"/></clipPath></defs></svg><svg viewBox="0 0 39 39" id="facebook" xmlns="http://www.w3.org/2000/svg"><circle cx="19.5" cy="19.5" r="19.5"/><path d="M17.547 29.526v-9.631H15v-3.468h2.547v-2.962c0-2.328 1.504-4.465 4.97-4.465 1.404 0 2.442.135 2.442.135l-.082 3.238s-1.058-.01-2.213-.01c-1.25 0-1.45.576-1.45 1.532v2.532h3.763l-.164 3.468h-3.6v9.631h-3.666Z"/></svg><svg viewBox="0 0 39 39" id="instagram" xmlns="http://www.w3.org/2000/svg"><circle cx="19.5" cy="19.5" r="19.5"/><path d="M19.748 16.499a3.258 3.258 0 0 0-3.252 3.251 3.258 3.258 0 0 0 3.252 3.251 3.258 3.258 0 0 0 3.251-3.251 3.258 3.258 0 0 0-3.251-3.251Zm9.751 3.251c0-1.346.013-2.68-.063-4.025-.076-1.56-.432-2.946-1.573-4.088-1.144-1.144-2.527-1.497-4.088-1.573-1.347-.075-2.681-.063-4.025-.063-1.346 0-2.68-.012-4.025.063-1.56.076-2.946.432-4.088 1.573-1.144 1.144-1.497 2.527-1.573 4.088-.075 1.347-.063 2.681-.063 4.025 0 1.344-.012 2.68.063 4.025.076 1.56.432 2.946 1.573 4.088 1.144 1.144 2.527 1.497 4.088 1.573 1.347.076 2.681.063 4.025.063 1.346 0 2.68.013 4.025-.063 1.56-.076 2.946-.432 4.088-1.573 1.144-1.144 1.497-2.527 1.573-4.088.078-1.344.063-2.679.063-4.025Zm-9.751 5.003a4.996 4.996 0 0 1-5.003-5.003 4.996 4.996 0 0 1 5.003-5.003 4.996 4.996 0 0 1 5.002 5.003 4.996 4.996 0 0 1-5.002 5.003Zm5.207-9.042a1.167 1.167 0 0 1-1.168-1.169c0-.646.522-1.168 1.168-1.168a1.167 1.167 0 0 1 .827 1.995 1.168 1.168 0 0 1-.827.342Z"/></svg><svg viewBox="0 0 11 19" id="mainarrow" xmlns="http://www.w3.org/2000/svg"><path d="m2.803 18.05 7.746-7.747a1.548 1.548 0 0 0 0-2.184L2.803.373A1.548 1.548 0 0 0 .62 2.557l6.646 6.646-6.646 6.662a1.548 1.548 0 0 0 0 2.184c.604.601 1.58.601 2.184 0Z"/></svg><svg viewBox="0 0 45 44" id="pizza" xmlns="http://www.w3.org/2000/svg"><g clip-path="url(#ja)"><path d="M43.858 43.752a.859.859 0 0 1-.892.198L7.27 31.223a4.698 4.698 0 0 1-4.255.338A4.706 4.706 0 0 1 .472 25.42 46.08 46.08 0 0 1 10.51 10.396 46.077 46.077 0 0 1 25.533.358 4.675 4.675 0 0 1 27.326 0c1.845 0 3.6 1.094 4.35 2.902a4.687 4.687 0 0 1-.027 3.65l12.419 36.31a.86.86 0 0 1-.21.89ZM12.676 31.325l3.783 1.349a2.187 2.187 0 0 0-.264-3.235 2.176 2.176 0 0 0-1.62-.434 2.176 2.176 0 0 0-1.452.838c-.328.428-.484.95-.447 1.482ZM30.087 3.56a2.985 2.985 0 0 0-3.896-1.614C15.188 6.504 6.618 15.074 2.06 26.077a2.962 2.962 0 0 0 0 2.282 2.962 2.962 0 0 0 1.614 1.614 2.963 2.963 0 0 0 2.282 0A2.962 2.962 0 0 0 7.57 28.36a38.432 38.432 0 0 1 8.373-12.531 38.433 38.433 0 0 1 12.53-8.373 2.985 2.985 0 0 0 1.614-3.896Zm7.635 26.06a2.177 2.177 0 0 0-1.685.855 2.193 2.193 0 0 0 2.024 3.505c.37-.049.716-.192 1.012-.41l-1.35-3.95Zm1.922 5.621a3.909 3.909 0 1 1-2.493-7.29l-1.708-4.995-1.964 1.507a.86.86 0 0 1-1.047-1.364l2.424-1.86-4.442-12.99a4.682 4.682 0 0 1-1.283.795c-9.107 3.772-16.2 10.866-19.973 19.973a4.7 4.7 0 0 1-.482.882l2.301.82c.08-.693.347-1.354.783-1.922a3.883 3.883 0 0 1 3.11-1.53c.854 0 1.681.279 2.37.808a3.884 3.884 0 0 1 1.497 2.591c.122.93-.095 1.85-.582 2.613l10.683 3.809.405-.978a.86.86 0 0 1 1.588.658l-.372.898 11.405 4.066-2.22-6.491Z"/><path d="M9.394 20.945a.859.859 0 1 1 0 0ZM8.087 23.08s-1.59 3.005-2.237 4.567a.86.86 0 0 1-1.588-.657 42.393 42.393 0 0 1 2.332-4.761.86.86 0 0 1 1.172-.321c.413.235.321 1.172.321 1.172ZM27.005 33.001a3.918 3.918 0 0 1-4.386-3.365 3.914 3.914 0 0 1 3.88-4.42 3.918 3.918 0 0 1 3.872 3.4A3.914 3.914 0 0 1 27.005 33Zm1.662-4.161a2.195 2.195 0 0 0-2.458-1.886 2.193 2.193 0 0 0-1.886 2.457 2.194 2.194 0 0 0 2.458 1.886 2.193 2.193 0 0 0 1.886-2.457ZM26.782 22.312a3.918 3.918 0 0 1-4.386-3.365 3.883 3.883 0 0 1 .774-2.891 3.883 3.883 0 0 1 3.105-1.53 3.918 3.918 0 0 1 3.872 3.4 3.914 3.914 0 0 1-3.365 4.386Zm1.661-4.162a2.195 2.195 0 0 0-2.458-1.886 2.177 2.177 0 0 0-1.451.838 2.176 2.176 0 0 0-.434 1.62 2.195 2.195 0 0 0 2.457 1.886 2.193 2.193 0 0 0 1.886-2.458ZM21.114 25.872l-2.642.348a.859.859 0 1 1-.224-1.704l2.641-.348a.86.86 0 0 1 .225 1.704ZM19.774 19.53l-.233 1.772a.86.86 0 1 1-1.704-.224l.233-1.772a.86.86 0 1 1 1.704.224Z"/></g><defs><clipPath id="ja"><path transform="matrix(1 0 0 -1 .113 44)" d="M0 0h44v44H0z"/></clipPath></defs></svg><svg viewBox="0 0 15 15" id="telegram" xmlns="http://www.w3.org/2000/svg"><path d="M9.318 14.3a.694.694 0 0 1-.616-.36l-2.041-3.858a.622.622 0 0 1 .05-.66L10.005 5.2 5.538 8.314a.725.725 0 0 1-.7.046L.757 6.432a.646.646 0 0 1-.379-.618.653.653 0 0 1 .449-.574L13.896.69a.719.719 0 0 1 .723.15c.19.18.252.447.16.685l-4.816 12.35a.684.684 0 0 1-.607.424l-.038.001Z"/></svg><svg viewBox="0 0 39 39" id="twitter" xmlns="http://www.w3.org/2000/svg"><circle cx="19.5" cy="19.5" r="19.5"/><path d="M29.526 12.98a8.436 8.436 0 0 1-2.422.652 4.196 4.196 0 0 0 1.85-2.319 8.303 8.303 0 0 1-2.669 1.017A4.195 4.195 0 0 0 23.211 11a4.205 4.205 0 0 0-4.206 4.208c0 .326.04.652.104.965a11.954 11.954 0 0 1-8.673-4.403 4.177 4.177 0 0 0-.573 2.124c0 1.46.743 2.748 1.875 3.505a4.243 4.243 0 0 1-1.902-.535v.051a4.207 4.207 0 0 0 3.372 4.13 4.456 4.456 0 0 1-1.107.143c-.274 0-.533-.027-.795-.064a4.214 4.214 0 0 0 3.933 2.918 8.43 8.43 0 0 1-5.223 1.798c-.352 0-.678-.012-1.016-.052a11.911 11.911 0 0 0 6.46 1.888c7.736 0 11.97-6.41 11.97-11.972 0-.182 0-.365-.013-.547a9.062 9.062 0 0 0 2.11-2.176Z"/></svg></svg>