<svg width="39" height="39" viewBox="0 0 39 39" fill="none" xmlns="http://www.w3.org/2000/svg">
<circle cx="19.5" cy="19.5" r="19.5" fill="#ECECEC"/>
<path d="M29.5263 12.9809C28.7715 13.3065 27.9501 13.5408 27.1039 13.6321C27.9824 13.1102 28.6402 12.2857 28.954 11.3133C28.1297 11.8037 27.2267 12.1475 26.285 12.3296C25.8914 11.9088 25.4153 11.5736 24.8865 11.3449C24.3577 11.1161 23.7875 10.9987 23.2113 11C20.8802 11 19.0054 12.8896 19.0054 15.2084C19.0054 15.534 19.0449 15.8596 19.109 16.1729C15.6185 15.9904 12.5054 14.3228 10.4357 11.7697C10.0586 12.4138 9.86098 13.1472 9.86341 13.8936C9.86341 15.3539 10.6059 16.6416 11.7382 17.3989C11.0709 17.3726 10.4193 17.1892 9.83628 16.8636V16.9154C9.83628 18.9604 11.2818 20.6551 13.2084 21.0449C12.8467 21.1388 12.4745 21.1869 12.1008 21.1879C11.827 21.1879 11.568 21.1608 11.3065 21.1238C11.8393 22.7914 13.391 24.0026 15.2386 24.042C13.793 25.1743 11.9824 25.8403 10.0164 25.8403C9.6636 25.8403 9.33798 25.828 9.00003 25.7885C10.8649 26.9849 13.0777 27.6756 15.4606 27.6756C23.1965 27.6756 27.4296 21.2669 27.4296 15.7042C27.4296 15.5217 27.4296 15.3391 27.4172 15.1566C28.2362 14.5571 28.954 13.8146 29.5263 12.9809Z" fill="#31352B"/>
</svg>
